<svg xmlns="http://www.w3.org/2000/svg" viewBox="0 0 900 700">
<defs>
<linearGradient id="sky" x1="0" y1="0" x2="0" y2="1"><stop stop-color="#061519"/><stop offset=".48" stop-color="#0b4c42"/><stop offset="1" stop-color="#031b18"/></linearGradient>
<linearGradient id="mount" x1="0" y1="0" x2="0" y2="1"><stop stop-color="#246b56"/><stop offset="1" stop-color="#05231e"/></linearGradient>
<linearGradient id="dragon" x1=".15" y1="0" x2=".8" y2="1"><stop stop-color="#b4ff78"/><stop offset=".35" stop-color="#4edc51"/><stop offset="1" stop-color="#08783f"/></linearGradient>
<linearGradient id="wing" x1="0" y1="0" x2="1" y2="1"><stop stop-color="#6aff78"/><stop offset="1" stop-color="#08713d"/></linearGradient>
<linearGradient id="belly" x1="0" y1="0" x2="0" y2="1"><stop stop-color="#eaffbd"/><stop offset="1" stop-color="#9bcf79"/></linearGradient>
<linearGradient id="water" x1="0" y1="0" x2="0" y2="1"><stop stop-color="#4cd5b0" stop-opacity=".55"/><stop offset="1" stop-color="#07372f" stop-opacity="0"/></linearGradient>
<filter id="soft"><feGaussianBlur stdDeviation="20"/></filter>
<filter id="glow"><feGaussianBlur stdDeviation="5"/></filter>
</defs>
<rect width="900" height="700" fill="url(#sky)"/>
<ellipse cx="650" cy="185" rx="260" ry="150" fill="#9bffc1" opacity=".16" filter="url(#soft)"/>
<circle cx="705" cy="132" r="54" fill="#d6ffbd" opacity=".11"/>
<path d="M0 335L110 218l72 92 110-143 98 153 92-103 105 111 92-134 121 141v160H0z" fill="url(#mount)" opacity=".72"/>
<path d="M0 392Q150 295 290 375t285-2 325-5v200H0z" fill="#062a24"/>
<path d="M0 470Q130 395 245 452t235-12 420 4v256H0z" fill="#041b18"/>
<path d="M570 315Q510 380 565 438T520 700H800V420Q700 370 570 315z" fill="url(#water)" opacity=".8"/>
<path d="M585 360q80 30 153 8M550 410q120 35 190 8M545 470q100 30 180 5" fill="none" stroke="#8bffd0" stroke-opacity=".28" stroke-width="3"/>
<g transform="translate(555 125)">
<path d="M35 205V93l34-34v-30h28v30l34 34v112M143 205V74l40-40v-35h30v35l39 40v131M255 205V100l34-34V37h28v29l35 34v105" fill="#061b1c" stroke="#5fe59d" stroke-opacity=".32" stroke-width="5"/>
<path d="M22 205h326l-35 28H58z" fill="#071d1e"/>
<g fill="#eaff9c"><rect x="73" y="105" width="13" height="22"/><rect x="104" y="132" width="13" height="22"/><rect x="169" y="93" width="14" height="24"/><rect x="202" y="125" width="14" height="23"/><rect x="273" y="112" width="13" height="22"/><rect x="304" y="143" width="13" height="22"/><rect x="160" y="168" width="22" height="38" rx="10"/></g>
</g>
<path d="M0 565q115-72 230-15t230-12q120-47 440 16v146H0z" fill="#061b17"/>
<path d="M0 610q100-48 205-12t170 2q120-42 250-5t275-5v110H0z" fill="#03110f"/>
<g transform="translate(48 250) scale(.76)">
<ellipse cx="300" cy="470" rx="235" ry="32" fill="#000" opacity=".48"/>
<path d="M410 430q190 82 270-50-45 154-253 111z" fill="#15974d" stroke="#6cff7a" stroke-width="7"/>
<path d="M190 255Q65 90 18 125q70 92 98 300 45-80 112-120z" fill="url(#wing)" stroke="#b2ff99" stroke-width="7"/>
<path d="M410 255Q535 90 582 125q-70 92-98 300-45-80-112-120z" fill="url(#wing)" stroke="#b2ff99" stroke-width="7"/>
<path d="M43 138l70 72 32-62M557 138l-70 72-32-62" fill="none" stroke="#a8ff8d" stroke-width="4" opacity=".65"/>
<ellipse cx="300" cy="350" rx="125" ry="150" fill="url(#dragon)" stroke="#b9ff9a" stroke-width="7"/>
<ellipse cx="300" cy="178" rx="111" ry="104" fill="url(#dragon)" stroke="#b9ff9a" stroke-width="7"/>
<path d="M230 92L194 7l69 63zM370 92L406 7l-69 63z" fill="#eaffd3" stroke="#a9d99a" stroke-width="3"/>
<path d="M207 151q-83-57-60 45 30 43 82 15zM393 151q83-57 60 45-30 43-82 15z" fill="#45ce5b"/>
<ellipse cx="253" cy="180" rx="28" ry="35" fill="#faffef"/><ellipse cx="347" cy="180" rx="28" ry="35" fill="#faffef"/>
<circle cx="259" cy="186" r="14" fill="#10251c"/><circle cx="341" cy="186" r="14" fill="#10251c"/>
<circle cx="264" cy="180" r="5" fill="#fff"/><circle cx="346" cy="180" r="5" fill="#fff"/>
<ellipse cx="300" cy="236" rx="66" ry="43" fill="#d9f3b5"/>
<circle cx="272" cy="235" r="7" fill="#367346"/><circle cx="328" cy="235" r="7" fill="#367346"/>
<path d="M273 258q27 20 54 0" fill="none" stroke="#2d693f" stroke-width="6" stroke-linecap="round"/>
<path d="M250 305q50-28 100 0l20 157q-70 45-140 0z" fill="url(#belly)" stroke="#83b978" stroke-width="3"/>
<path d="M270 340h60M266 375h68M262 410h76" stroke="#8bb875" stroke-width="4" opacity=".7"/>
<ellipse cx="225" cy="466" rx="67" ry="25" fill="#168b49"/><ellipse cx="375" cy="466" rx="67" ry="25" fill="#168b49"/>
<path d="M210 344h180q13 0 13 13v103H197V357q0-13 13-13z" fill="#071e25" stroke="#4ce8f3" stroke-width="6"/>
<rect x="225" y="361" width="150" height="76" rx="7" fill="#031118"/>
<text x="300" y="411" text-anchor="middle" font-family="Arial" font-size="47" font-weight="800" fill="#48ddf4">Py</text>
<path d="M184 450h232l37 27H147z" fill="#0a3943" stroke="#4ce8f3" stroke-width="5"/>
<rect x="92" y="462" width="92" height="63" rx="10" fill="#071c22" stroke="#45dcf2" stroke-width="5"/>
<text x="138" y="507" text-anchor="middle" font-family="Arial" font-size="30" font-weight="800" fill="#4bdcf3">Py</text>
</g>
<g fill="#baffbe"><circle cx="92" cy="190" r="3"/><circle cx="128" cy="265" r="5"/><circle cx="460" cy="220" r="4"/><circle cx="510" cy="278" r="3"/><circle cx="842" cy="315" r="4"/></g>
<path d="M0 590Q220 535 410 590t490-4v114H0z" fill="#051815" opacity=".82"/>
</svg>